# Blender v2.80 (sub 75) OBJ File: 'simple_arrow.blend'
# www.blender.org
mtllib simple_arrow.mtl
o Cube
v 1.000000 -1.000000 -1.000000
v 1.000000 1.000000 1.000000
v 1.000000 -1.000000 1.000000
v -1.000000 1.000000 -1.000000
v -1.000000 -1.000000 -1.000000
v -1.000000 1.000000 1.000000
v -1.000000 3.000000 1.000000
v -1.000000 -1.000000 1.000000
v -1.000000 3.000000 -1.000000
v 1.000000 3.000000 1.000000
v 1.000000 3.000000 -1.000000
v 1.000000 1.000000 -1.000000
v 1.000000 4.000000 1.000000
v -1.000000 4.000000 1.000000
v -1.000000 4.000000 -1.000000
v 1.000000 4.000000 -1.000000
v -3.000000 3.000000 1.000000
v -3.000000 3.000000 -1.000000
v -3.000000 4.000000 1.000000
v -3.000000 4.000000 -1.000000
v 1.000000 3.000000 3.000000
v -1.000000 3.000000 3.000000
v 1.000000 4.000000 3.000000
v -1.000000 4.000000 3.000000
v 3.000000 3.000000 -1.000000
v 3.000000 3.000000 1.000000
v 3.000000 4.000000 -1.000000
v 3.000000 4.000000 1.000000
v -1.000000 3.000000 -3.000000
v 1.000000 3.000000 -3.000000
v -1.000000 4.000000 -3.000000
v 1.000000 4.000000 -3.000000
v 1.000000 6.000000 -1.000000
v -1.000000 6.000000 -1.000000
v 1.000000 6.000000 1.000000
v -1.000000 6.000000 1.000000
v -1.000000 6.000000 1.000000
v 1.000000 6.000000 1.000000
v -1.000000 6.000000 -1.000000
v 1.000000 6.000000 -1.000000
v 1.000000 6.000000 1.000000
v 1.000000 6.000000 -1.000000
v -1.000000 6.000000 1.000000
v -1.000000 6.000000 -1.000000
v -1.000000 6.000000 -1.000000
v -1.000000 6.000000 1.000000
v 1.000000 6.000000 -1.000000
v 1.000000 6.000000 1.000000
v -0.892173 5.855240 -1.110425
v 1.107826 5.855240 -1.110425
v 1.000000 -3.000000 1.000000
v -1.000000 -3.000000 1.000000
v -1.000000 -3.000000 -1.000000
v 1.000000 -3.000000 -1.000000
v 1.000000 3.000000 1.000000
v 1.000000 4.000000 1.000000
v 3.000000 3.000000 1.000000
v 3.000000 4.000000 1.000000
v 1.000000 3.000000 1.000000
v 1.000000 4.000000 1.000000
v 3.000000 3.000000 1.000000
v 3.000000 4.000000 1.000000
v -0.000825 7.000000 -0.000825
v 1.000000 5.999175 1.000000
v -1.000000 5.999175 1.000000
v 0.000825 7.000000 -0.000825
v -1.000000 5.999175 -1.000000
v 0.000825 7.000000 0.000825
v 1.000000 5.999175 -1.000000
v -0.000825 7.000000 0.000825
v 1.000000 4.000000 1.000000
v 1.000000 4.000000 3.000000
v 3.000000 4.000000 1.000000
v 1.000000 6.000000 -1.000000
v 1.000000 6.000000 1.000000
v 1.000000 6.000000 1.000000
v -1.000000 6.000000 1.000000
v 3.000000 3.000000 1.000000
v 3.000000 4.000000 1.000000
v 1.000000 4.000000 1.000000
v 1.000000 3.000000 1.000000
v 1.000000 4.000000 -3.000000
v 1.000000 3.000000 -3.000000
v -3.000000 3.000000 -1.000000
v -3.000000 4.000000 -1.000000
v 1.000000 4.000000 3.000000
v 1.000000 3.000000 3.000000
v 1.000000 3.000000 -1.000000
v 1.000000 4.000000 -1.000000
v 3.000000 3.000000 -1.000000
v 3.000000 4.000000 -1.000000
v -0.000825 7.000000 0.000825
v -1.000000 4.000000 -1.000000
v -1.000000 3.000000 -1.000000
v -1.000000 4.000000 -3.000000
v -1.000000 3.000000 -3.000000
v -1.000000 4.000000 1.000000
v -1.000000 4.000000 3.000000
v -1.000000 3.000000 3.000000
v -1.000000 3.000000 1.000000
v 1.000000 4.000000 1.000000
v 1.000000 4.000000 3.000000
v 1.000000 3.000000 3.000000
v 1.000000 3.000000 1.000000
v 1.000000 4.000000 1.000000
v 1.000000 4.000000 3.000000
v 1.000000 3.000000 3.000000
v 1.000000 3.000000 1.000000
v 1.000000 4.000000 3.000000
v 1.000000 3.000000 3.000000
v -1.000000 4.000000 3.000000
v -1.000000 3.000000 3.000000
vt 0.625000 0.250000
vt 0.625000 0.000000
vt 0.625000 0.000000
vt 0.625000 0.250000
vt 0.625000 0.500000
vt 0.625000 0.250000
vt 0.625000 0.250000
vt 0.625000 0.500000
vt 0.875000 0.750000
vt 0.875000 0.500000
vt 0.875000 0.500000
vt 0.875000 0.750000
vt 0.375000 0.000000
vt 0.375000 0.250000
vt 0.375000 0.250000
vt 0.375000 0.500000
vt 0.375000 0.500000
vt 0.625000 0.500000
vt 0.625000 0.750000
vt 0.375000 0.750000
vt 0.625000 0.250000
vt 0.625000 0.500000
vt 0.625000 0.500000
vt 0.625000 0.750000
vt 0.125000 0.500000
vt 0.375000 0.750000
vt 0.125000 0.750000
vt 0.625000 0.500000
vt 0.625000 0.750000
vt 0.875000 0.750000
vt 0.875000 0.750000
vt 0.875000 0.750000
vt 0.875000 0.750000
vt 0.625000 0.250000
vt 0.625000 0.250000
vt 0.625000 0.250000
vt 0.625000 0.250000
vt 0.625000 0.250000
vt 0.625000 0.250000
vt 0.625000 0.750000
vt 0.625000 0.500000
vt 0.625000 0.500000
vt 0.625000 0.750000
vt 0.875000 0.750000
vt 0.875000 0.750000
vt 0.875000 0.750000
vt 0.625000 0.250000
vt 0.625000 0.250000
vt 0.875000 0.750000
vt 0.875000 0.500000
vt 0.875000 0.500000
vt 0.875000 0.750000
vt 0.875000 0.500000
vt 0.875000 0.750000
vt 0.875000 0.750000
vt 0.875000 0.750000
vt 0.625000 0.250000
vt 0.625000 0.000000
vt 0.625000 0.000000
vt 0.625000 0.250000
vt 0.625000 0.500000
vt 0.625000 0.500000
vt 0.625000 0.500000
vt 0.625000 0.500000
vt 0.625000 0.250000
vt 0.625000 0.500000
vt 0.625000 0.250000
vt 0.625000 0.250000
vt 0.625000 0.500000
vt 0.625000 0.500000
vt 0.000000 0.000000
vt 0.000000 0.000000
vt 0.000000 0.000000
vt 0.000000 0.000000
vt 0.875000 0.750000
vt 0.625000 0.250000
vt 0.625000 0.250000
vt 0.625000 0.500000
vt 0.625000 0.750000
vt 0.875000 0.750000
vt 0.875000 0.750000
vt 0.875000 0.500000
vt 0.875000 0.500000
vt 0.625000 0.000000
vt 0.625000 0.250000
vt 0.625000 0.500000
vt 0.625000 0.500000
vt 0.375000 0.750000
vt 0.625000 0.750000
vt 0.625000 1.000000
vt 0.375000 1.000000
vt 0.375000 0.750000
vt 0.625000 0.750000
vt 0.625000 1.000000
vt 0.375000 1.000000
vt 0.625000 0.250000
vt 0.625000 0.250000
vt 0.625000 0.250000
vt 0.625000 0.250000
vt 0.625000 0.250000
vt 0.625000 0.250000
vt 0.625000 0.250000
vt 0.625000 0.250000
vt 0.375000 1.000000
vt 0.375000 0.750000
vt 0.500103 0.875103
vt 0.500103 0.874897
vt 0.499897 0.874897
vt 0.499897 0.875103
vt 0.625000 0.750000
vt 0.625000 1.000000
vt 0.625000 0.250000
vt 0.625000 0.250000
vt 0.625000 0.250000
vt 0.625000 0.250000
vt 0.625000 0.250000
vt 0.625000 0.250000
vt 0.625000 0.250000
vt 0.000000 0.000000
vt 0.000000 0.000000
vt 0.625000 0.250000
vt 0.000000 0.000000
vt 0.000000 0.000000
vt 0.000000 0.000000
vt 0.000000 0.000000
vt 0.625000 0.250000
vt 0.625000 0.250000
vt 0.000000 0.000000
vt 0.000000 0.000000
vt 0.000000 0.000000
vt 0.000000 0.000000
vt 0.625000 0.250000
vt 0.625000 0.250000
vt 0.625000 0.500000
vt 0.625000 0.500000
vt 0.625000 0.500000
vt 0.625000 0.500000
vt 0.000000 0.000000
vt 0.000000 0.000000
vt 0.000000 0.000000
vt 0.000000 0.000000
vt 0.875000 0.750000
vt 0.875000 0.750000
vt 0.875000 0.750000
vt 0.875000 0.750000
vt 0.875000 0.750000
vt 0.875000 0.750000
vt 0.875000 0.750000
vt 0.875000 0.750000
vt 0.875000 0.750000
vt 0.875000 0.750000
vt 0.875000 0.750000
vt 0.875000 0.750000
vt 0.875000 0.750000
vt 0.875000 0.750000
vn 1.0000 0.0000 0.0000
vn 0.0000 0.0000 -1.0000
vn 0.0000 0.0000 1.0000
vn -1.0000 0.0000 0.0000
vn 0.0000 -1.0000 0.0000
vn 0.0000 0.7071 0.7071
vn 0.0000 0.7071 -0.7071
vn -0.7071 0.7071 0.0000
vn 0.7071 0.7071 0.0000
vn 0.0000 -0.6065 0.7951
vn 0.0000 1.0000 0.0000
vn 0.0000 -0.7071 -0.7071
vn 0.7071 -0.7071 0.0000
vn 0.0000 -0.7071 0.7071
vn -0.7071 -0.7071 0.0000
usemtl Material
s off
f 2/1/1 12/2/1 11/3/1 10/4/1
f 12/5/2 4/6/2 9/7/2 11/8/2
f 6/9/3 2/10/3 10/11/3 7/12/3
f 1/13/1 12/2/1 2/1/1 3/14/1
f 5/15/2 4/6/2 12/5/2 1/16/2
f 8/17/4 6/18/4 4/19/4 5/20/4
f 11/8/5 9/7/5 29/21/5 30/22/5
f 4/19/4 6/18/4 7/23/4 9/24/4
f 5/25/5 1/16/5 3/26/5 8/27/5
f 3/28/3 2/10/3 6/9/3 8/29/3
f 80/30/4 81/31/4 110/32/4 109/33/4
f 13/34/3 10/4/3 55/35/3 56/36/3
f 15/37/2 9/7/2 18/38/2 20/39/2
f 18/40/4 17/41/4 19/42/4 20/43/4
f 7/12/3 14/44/3 19/45/3 17/46/3
f 9/24/5 7/23/5 17/41/5 18/40/5
f 15/37/2 20/39/2 44/47/2 42/48/2
f 22/49/3 21/50/3 23/51/3 24/52/3
f 7/12/5 10/11/5 21/50/5 22/49/5
f 24/52/6 23/51/6 35/53/6 36/54/6
f 22/49/2 24/52/2 86/55/2 87/56/2
f 26/57/1 25/58/1 27/59/1 28/60/1
f 10/4/5 11/3/5 25/58/5 26/57/5
f 27/61/2 16/62/2 45/63/2 47/64/2
f 30/22/2 29/21/2 31/65/2 32/66/2
f 9/7/3 15/37/3 85/67/3 84/68/3
f 16/62/1 32/66/1 40/69/1 38/70/1
f 16/62/1 11/8/1 30/22/1 32/66/1
f 33/71/3 35/72/3 75/73/3 74/74/3
f 14/44/4 24/52/4 36/54/4 34/75/4
f 32/66/7 31/65/7 39/76/7 40/69/7
f 31/65/4 15/37/4 37/77/4 39/76/4
f 20/43/8 19/42/8 43/78/8 44/79/8
f 19/45/3 14/44/3 41/80/3 43/81/3
f 35/53/3 23/51/3 72/82/3 75/83/3
f 28/60/9 27/59/9 47/84/9 48/85/9
f 47/64/10 45/63/10 49/86/10 50/87/10
f 54/88/11 53/89/11 52/90/11 51/91/11
f 16/92/3 15/93/3 53/89/3 54/88/3
f 14/94/2 13/95/2 51/91/2 52/90/2
f 13/95/4 16/92/4 54/88/4 51/91/4
f 15/93/1 14/94/1 52/90/1 53/89/1
f 55/35/3 57/96/3 61/97/3 59/98/3
f 10/4/3 26/57/3 57/96/3 55/35/3
f 28/60/3 13/34/3 56/36/3 58/99/3
f 26/57/3 28/60/3 58/99/3 57/96/3
f 60/100/1 59/98/1 88/101/1 89/102/1
f 56/36/3 55/35/3 59/98/3 60/100/3
f 58/99/3 56/36/3 60/100/3 62/103/3
f 57/96/3 58/99/3 62/103/3 61/97/3
f 16/92/4 13/95/4 64/104/4 69/105/4
f 70/106/5 63/107/5 66/108/5 68/109/5
f 14/94/1 15/93/1 67/110/1 65/111/1
f 15/93/3 16/92/3 69/105/3 67/110/3
f 64/104/12 65/111/12 66/108/12 63/107/12
f 65/111/13 67/110/13 68/109/13 66/108/13
f 67/110/14 69/105/14 70/106/14 68/109/14
f 69/105/15 64/104/15 63/107/15 70/106/15
f 13/95/2 14/94/2 65/111/2 64/104/2
f 72/112/1 71/113/1 74/114/1 75/115/1
f 71/113/3 73/116/3 76/117/3 77/118/3
f 13/119/3 33/71/3 74/74/3 71/120/3
f 28/60/3 48/85/3 76/117/3 73/116/3
f 23/121/3 13/34/3 71/113/3 72/112/3
f 48/122/3 46/123/3 77/124/3 76/125/3
f 13/34/3 28/60/3 73/116/3 71/113/3
f 46/123/3 13/119/3 71/120/3 77/124/3
f 24/52/5 14/44/5 80/30/5 86/55/5
f 10/4/2 13/34/2 79/126/2 78/127/2
f 14/44/3 7/12/3 81/31/3 80/30/3
f 7/12/11 22/49/11 87/56/11 81/31/11
f 16/128/11 82/129/11 95/130/11 93/131/11
f 89/102/3 88/101/3 90/132/3 91/133/3
f 62/103/5 60/100/5 89/102/5 91/133/5
f 61/97/4 62/103/4 91/133/4 90/132/4
f 59/98/11 61/97/11 90/132/11 88/101/11
f 94/134/4 93/135/4 95/136/4 96/137/4
f 82/129/2 83/138/2 96/139/2 95/130/2
f 11/8/3 16/62/3 93/135/3 94/134/3
f 83/138/5 11/140/5 94/141/5 96/139/5
f 97/142/3 100/143/3 104/144/3 101/145/3
f 87/56/3 86/55/3 98/146/3 99/147/3
f 86/55/11 80/30/11 97/142/11 98/146/11
f 81/31/5 87/56/5 99/147/5 100/143/5
f 104/144/3 103/148/3 107/149/3 108/150/3
f 98/146/5 97/142/5 101/145/5 102/151/5
f 100/143/11 99/147/11 103/148/11 104/144/11
f 99/147/2 98/146/2 102/151/2 103/148/2
f 105/152/4 108/150/4 107/149/4 106/153/4
f 103/148/3 102/151/3 106/153/3 107/149/3
f 101/145/3 104/144/3 108/150/3 105/152/3
f 102/151/3 101/145/3 105/152/3 106/153/3
f 109/33/2 110/32/2 112/154/2 111/155/2
f 81/31/11 100/143/11 112/154/11 110/32/11
f 100/143/1 97/142/1 111/155/1 112/154/1
f 97/142/5 80/30/5 109/33/5 111/155/5
l 70 92
