# Blender v2.79 (sub 0) OBJ File: ''
# www.blender.org
mtllib test.mtl
o Cube
v 0.628221 -0.587334 -0.678483
v 0.662107 -0.648028 0.584497
v -0.602059 -0.675795 0.617081
v -0.635946 -0.615101 -0.645900
v 0.602060 0.675795 -0.617080
v 0.635945 0.615101 0.645900
v -0.628221 0.587334 0.678483
v -0.662107 0.648028 -0.584497
vn 0.0207 -0.9986 -0.0485
vn -0.0207 0.9986 0.0485
vn 0.9994 0.0220 -0.0258
vn 0.0268 -0.0480 0.9985
vn -0.9994 -0.0220 0.0258
vn -0.0268 0.0480 -0.9985
usemtl Material
s off
f 1//1 2//1 3//1 4//1
f 5//2 8//2 7//2 6//2
f 1//3 5//3 6//3 2//3
f 2//4 6//4 7//4 3//4
f 3//5 7//5 8//5 4//5
f 5//6 1//6 4//6 8//6
